<svg width="139" height="112" viewBox="0 0 139 112" fill="none" xmlns="http://www.w3.org/2000/svg">
<path d="M14.6171 93.5918C7.37171 76.096 -10.3193 41.9651 14.6171 31.3657L50.5223 16.7513L56.8582 6.41386C66.6184 -4.56319 75.1988 6.41386 75.1988 16.7513C75.1988 16.7513 81.4795 11.403 85.9668 10.4058C90.454 9.40865 99.8194 14.7228 85.9668 28.8533L135.9 79.2211C115.447 98.7576 100.514 105.789 66.5358 110.023V95.5006C66.5358 95.5006 21.8624 111.088 14.6171 93.5918Z" fill="#FF8C00" stroke="#FF8C00" stroke-width="3" stroke-linecap="round"/>
<path d="M67.3211 39.8534C67.3211 42.4427 66.8864 44.7169 66.2398 46.288C65.9151 47.0772 65.5664 47.617 65.256 47.936C64.9501 48.2504 64.7777 48.2606 64.7442 48.2606C64.7107 48.2606 64.5383 48.2504 64.2324 47.936C63.922 47.617 63.5733 47.0772 63.2486 46.288C62.602 44.7169 62.1674 42.4427 62.1674 39.8534C62.1674 37.2642 62.602 34.99 63.2486 33.4189C63.5733 32.6297 63.922 32.0899 64.2324 31.7709C64.5383 31.4565 64.7107 31.4463 64.7442 31.4463C64.7777 31.4463 64.9501 31.4565 65.256 31.7709C65.5664 32.0899 65.9151 32.6297 66.2398 33.4189C66.8864 34.99 67.3211 37.2642 67.3211 39.8534Z" fill="black" stroke="black" stroke-width="3"/>
<path d="M23.8155 44.2836C24.0985 53.2937 11.3865 62.6869 5.80529 59.8028C0.487446 59.7461 -0.743931 50.0754 0.604472 44.2836C1.95288 38.4918 8.30931 29.9463 15.4364 29.9463C22.5635 29.9463 23.5324 35.2735 23.8155 44.2836Z" fill="black"/>
<path d="M1.60172 62.2535C0.249492 58.5363 0.338072 55.981 0.206614 51.2681C0.0751568 46.5552 21.736 34.4302 22.2846 46.1035C22.8333 57.7768 2.95394 65.9707 1.60172 62.2535Z" fill="black"/>
<path d="M20.3141 38.7903C20.3141 40.5698 20.4852 41.6271 18.9674 41.6271C17.4496 41.6271 14.8176 40.5698 14.8176 38.7903C13.7728 36.4592 14.9462 34.9862 17.5658 35.5682C19.0836 35.5682 20.3141 37.0108 20.3141 38.7903Z" fill="#D9D9D9"/>
<path d="M65.0413 100.513C65.3215 100.541 65.5439 100.513 65.5439 100.513L65.0413 97.5697V100.513Z" fill="black"/>
<path d="M23.8155 44.2836C24.0985 53.2937 11.3865 62.6869 5.80529 59.8028C0.487446 59.7461 -0.743931 50.0754 0.604472 44.2836C1.95288 38.4918 8.30931 29.9463 15.4364 29.9463C22.5635 29.9463 23.5324 35.2735 23.8155 44.2836Z" fill="black"/>
<path d="M1.60172 62.2535C0.249492 58.5363 0.338072 55.981 0.206614 51.2681C0.0751568 46.5552 21.736 34.4302 22.2846 46.1035C22.8333 57.7768 2.95394 65.9707 1.60172 62.2535Z" fill="black"/>
<path d="M20.3141 38.7903C20.3141 40.5698 20.4852 41.6271 18.9674 41.6271C17.4496 41.6271 14.8176 40.5698 14.8176 38.7903C13.7728 36.4592 14.9462 34.9862 17.5658 35.5682C19.0836 35.5682 20.3141 37.0108 20.3141 38.7903Z" fill="#D9D9D9"/>
<path d="M89.9713 20.8465C86.9218 20.0972 84.5848 21.1386 79.9398 25.7997" stroke="black" stroke-width="3" stroke-linecap="round"/>
<path d="M66.5215 97.3496L65.0355 97.5542L65.4449 100.526L66.9308 100.322L66.5215 97.3496ZM77.1401 97.3751C77.9156 97.0836 78.308 96.2187 78.0165 95.4432C77.7251 94.6678 76.8602 94.2754 76.0847 94.5669L77.1401 97.3751ZM66.9308 100.322C70.1722 99.875 72.3872 99.1614 77.1401 97.3751L76.0847 94.5669C71.371 96.3384 69.4154 96.951 66.5215 97.3496L66.9308 100.322Z" fill="black"/>
</svg>
