<svg width="162" height="153" viewBox="0 0 162 153" fill="none" xmlns="http://www.w3.org/2000/svg">
<ellipse cx="81" cy="76.5755" rx="81" ry="76.4245" fill="#F5F5F5"/>
<path d="M27.6171 109.592C20.3717 92.096 2.68072 57.9651 27.6171 47.3657L63.5223 32.7513L69.8582 22.4139C79.6184 11.4368 88.1988 22.4139 88.1988 32.7513C88.1988 32.7513 94.4795 27.403 98.9668 26.4058C103.454 25.4087 112.819 30.7228 98.9668 44.8533L148.9 95.2211C128.447 114.758 113.514 121.789 79.5358 126.023V111.501C79.5358 111.501 34.8624 127.088 27.6171 109.592Z" fill="#FF8C00" stroke="#FF8C00" stroke-width="3" stroke-linecap="round"/>
<path d="M80.3211 55.8534C80.3211 58.4427 79.8864 60.7169 79.2398 62.288C78.9151 63.0772 78.5664 63.617 78.256 63.936C77.9501 64.2504 77.7777 64.2606 77.7442 64.2606C77.7107 64.2606 77.5383 64.2504 77.2324 63.936C76.922 63.617 76.5733 63.0772 76.2486 62.288C75.602 60.7169 75.1674 58.4427 75.1674 55.8534C75.1674 53.2642 75.602 50.99 76.2486 49.4189C76.5733 48.6297 76.922 48.0899 77.2324 47.7709C77.5383 47.4565 77.7107 47.4463 77.7442 47.4463C77.7777 47.4463 77.9501 47.4565 78.256 47.7709C78.5664 48.0899 78.9151 48.6297 79.2398 49.4189C79.8864 50.99 80.3211 53.2642 80.3211 55.8534Z" fill="black" stroke="black" stroke-width="3"/>
<path d="M36.8155 60.2836C37.0985 69.2937 24.3865 78.6869 18.8053 75.8028C13.4874 75.7461 12.2561 66.0754 13.6045 60.2836C14.9529 54.4918 21.3093 45.9463 28.4364 45.9463C35.5635 45.9463 36.5324 51.2735 36.8155 60.2836Z" fill="black"/>
<path d="M14.6017 78.2535C13.2495 74.5363 13.3381 71.981 13.2066 67.2681C13.0752 62.5552 34.736 50.4302 35.2846 62.1035C35.8333 73.7768 15.9539 81.9707 14.6017 78.2535Z" fill="black"/>
<path d="M33.3141 54.7903C33.3141 56.5698 33.4852 57.6271 31.9674 57.6271C30.4496 57.6271 27.8176 56.5698 27.8176 54.7903C26.7728 52.4592 27.9462 50.9862 30.5658 51.5682C32.0836 51.5682 33.3141 53.0108 33.3141 54.7903Z" fill="#D9D9D9"/>
<path d="M78.0413 116.513C78.3215 116.541 78.5439 116.513 78.5439 116.513L78.0413 113.57V116.513Z" fill="black"/>
<path d="M36.8155 60.2836C37.0985 69.2937 24.3865 78.6869 18.8053 75.8028C13.4874 75.7461 12.2561 66.0754 13.6045 60.2836C14.9529 54.4918 21.3093 45.9463 28.4364 45.9463C35.5635 45.9463 36.5324 51.2735 36.8155 60.2836Z" fill="black"/>
<path d="M14.6017 78.2535C13.2495 74.5363 13.3381 71.981 13.2066 67.2681C13.0752 62.5552 34.736 50.4302 35.2846 62.1035C35.8333 73.7768 15.9539 81.9707 14.6017 78.2535Z" fill="black"/>
<path d="M33.3141 54.7903C33.3141 56.5698 33.4852 57.6271 31.9674 57.6271C30.4496 57.6271 27.8176 56.5698 27.8176 54.7903C26.7728 52.4592 27.9462 50.9862 30.5658 51.5682C32.0836 51.5682 33.3141 53.0108 33.3141 54.7903Z" fill="#D9D9D9"/>
<path d="M102.971 36.8465C99.9218 36.0972 97.5848 37.1386 92.9398 41.7997" stroke="black" stroke-width="3" stroke-linecap="round"/>
<path d="M79.5215 113.35L78.0355 113.554L78.4449 116.526L79.9308 116.322L79.5215 113.35ZM90.1401 113.375C90.9156 113.084 91.308 112.219 91.0165 111.443C90.7251 110.668 89.8602 110.275 89.0847 110.567L90.1401 113.375ZM79.9308 116.322C83.1722 115.875 85.3872 115.161 90.1401 113.375L89.0847 110.567C84.371 112.338 82.4154 112.951 79.5215 113.35L79.9308 116.322Z" fill="black"/>
</svg>
